Coordinates
version=1
nRows=33
nColumns=30
inDegrees=yes

Units are S.I. units (second, meters, Newtons, ...)
Angles are in degrees.

endheader
time	floatyaw	floatroll	floatpitch	floatx	floaty	floatz	pro_sup_l	deviation_l	flexion_l	cmc_flexion_l	cmc_abduction_l	mp_flexion_l	ip_flexion_l	2mcp_flexion_l	2mcp_abduction_l	2pm_flexion_l	2md_flexion_l	3mcp_flexion_l	3mcp_abduction_l	3pm_flexion_l	3md_flexion_l	4mcp_flexion_l	4mcp_abduction_l	4pm_flexion_l	4md_flexion_l	5mcp_flexion_l	5mcp_abduction_l	5pm_flexion_l	5md_flexion_l
-1.495000	-160.147433	-5.066637	-73.570646	0.081174	-0.182229	-0.014601	100.277459	3.249104	0.253679	15.945541	7.544147	-25.179966	-41.346515	29.436732	6.184330	41.974309	28.447667	23.278883	3.954494	43.156029	28.741004	11.936670	-4.236517	51.579529	35.308254	-0.329291	-7.172062	61.379284	41.724479
-1.485000	-160.147433	-5.066637	-73.570646	0.081176	-0.182225	-0.014603	100.280589	3.252209	0.263779	15.919522	7.581591	-25.183637	-41.347421	29.421611	6.184705	41.988992	28.458212	23.261576	3.955131	43.155502	28.745198	11.918763	-4.235122	51.579630	35.307710	-0.340893	-7.171418	61.371412	41.719596
-1.475000	-160.147433	-5.066637	-73.570646	0.081178	-0.182224	-0.014608	100.276762	3.250800	0.271450	15.893211	7.614920	-25.190616	-41.353765	29.413374	6.184338	41.994637	28.463373	23.249986	3.955158	43.147307	28.745102	11.901966	-4.233834	51.577754	35.306913	-0.356567	-7.171388	61.368477	41.719853
-1.465000	-160.147433	-5.066637	-73.570646	0.081179	-0.182229	-0.014615	100.266973	3.245190	0.275979	15.864941	7.644636	-25.200138	-41.362964	29.415853	6.183415	41.989454	28.460525	23.243021	3.954432	43.136848	28.742661	11.887044	-4.233608	51.577231	35.307081	-0.374708	-7.171797	61.371489	41.724477
-1.455000	-160.147433	-5.066637	-73.570646	0.081179	-0.182236	-0.014622	100.254738	3.237400	0.277562	15.835105	7.670008	-25.212177	-41.373618	29.429382	6.182044	41.974535	28.449365	23.238390	3.952966	43.129401	28.739933	11.874667	-4.234915	51.579881	35.308969	-0.393176	-7.171749	61.378576	41.731433
-1.445000	-160.147433	-5.066637	-73.570646	0.081178	-0.182243	-0.014629	100.244443	3.230205	0.277108	15.805763	7.690045	-25.226759	-41.385493	29.450744	6.180217	41.954303	28.432590	23.234031	3.951026	43.128001	28.738088	11.865343	-4.237400	51.585554	35.312603	-0.409809	-7.170222	61.386154	41.738686
-1.435000	-160.147433	-5.066637	-73.570646	0.081177	-0.182249	-0.014635	100.239358	3.225925	0.275765	15.779121	7.705159	-25.242969	-41.398400	29.474271	6.177942	41.935879	28.415561	23.229006	3.949154	43.132924	28.737277	11.859168	-4.240032	51.592961	35.317554	-0.422791	-7.166859	61.390899	41.745201
-1.425000	-160.147433	-5.066637	-73.570646	0.081175	-0.182252	-0.014637	100.240462	3.225616	0.274404	15.756057	7.717894	-25.258579	-41.410963	29.493701	6.175507	41.926897	28.404592	23.223448	3.948009	43.142746	28.737297	11.855606	-4.241650	51.600994	35.323454	-0.430895	-7.162377	61.391407	41.751138
-1.415000	-160.147433	-5.066637	-73.570646	0.081173	-0.182253	-0.014637	100.246584	3.229025	0.273400	15.735838	7.731787	-25.270785	-41.420364	29.504125	6.173630	41.932389	28.404400	23.217776	3.948079	43.155970	28.738455	11.853462	-4.241592	51.609582	35.330256	-0.433737	-7.158284	61.388752	41.757309
-1.405000	-160.147433	-5.066637	-73.570646	0.081171	-0.182252	-0.014633	100.255545	3.235119	0.272863	15.717166	7.748814	-25.277736	-41.423425	29.503331	6.173259	41.952281	28.415990	23.211733	3.949409	43.171993	28.741872	11.851019	-4.240036	51.619620	35.338060	-0.432134	-7.156122	61.385818	41.764442
-1.395000	-160.147433	-5.066637	-73.570646	0.081170	-0.182250	-0.014628	100.265428	3.242720	0.273140	15.699539	7.767156	-25.279855	-41.418402	29.492154	6.175056	41.981010	28.436149	23.203960	3.951581	43.190692	28.748864	11.846279	-4.237869	51.632147	35.346691	-0.428383	-7.156737	61.385974	41.772789
-1.385000	-160.147433	-5.066637	-73.570646	0.081169	-0.182247	-0.014622	100.275241	3.250884	0.275152	15.683762	7.781279	-25.279970	-41.406298	29.473848	6.178880	42.009683	28.458890	23.192523	3.953985	43.211084	28.759741	11.837324	-4.236161	51.647346	35.355421	-0.426076	-7.160017	61.391849	41.782287
-1.375000	-160.147433	-5.066637	-73.570646	0.081170	-0.182243	-0.014616	100.284719	3.258939	0.280185	15.671210	7.785079	-25.281925	-41.390772	29.452810	6.183673	42.029747	28.478068	23.176127	3.956203	43.230447	28.772985	11.822912	-4.235565	51.663960	35.363066	-0.429102	-7.165144	61.404666	41.793004
-1.365000	-160.147433	-5.066637	-73.570646	0.081173	-0.182237	-0.014610	100.293744	3.266363	0.289124	15.662548	7.776329	-25.288446	-41.376629	29.433227	6.187878	42.036285	28.489829	23.155214	3.958223	43.245008	28.785666	11.803248	-4.236013	51.679500	35.368416	-0.439923	-7.171045	61.423996	41.805306
-1.355000	-160.147433	-5.066637	-73.570646	0.081179	-0.182230	-0.014606	100.302042	3.272735	0.301590	15.656968	7.759086	-25.299586	-41.367766	29.418193	6.190191	42.029336	28.493650	23.132281	3.960334	43.251778	28.794865	11.780549	-4.236860	51.691155	35.370730	-0.457955	-7.176724	61.447752	41.819377
-1.345000	-160.147433	-5.066637	-73.570646	0.081186	-0.182221	-0.014603	100.309516	3.277867	0.315654	15.652536	7.741858	-25.312697	-41.365776	29.409471	6.190218	42.012863	28.491603	23.111259	3.962810	43.250035	28.799018	11.758858	-4.237322	51.696918	35.369952	-0.479137	-7.181405	61.472473	41.834321
-1.335000	-160.147433	-5.066637	-73.570646	0.081194	-0.182211	-0.014601	100.316872	3.282064	0.328493	15.647316	7.732629	-25.323790	-41.369770	29.407599	6.188712	41.992309	28.486525	23.096282	3.965589	43.241383	28.798252	11.742831	-4.236922	51.696388	35.366532	-0.497247	-7.184553	61.494135	41.847574
-1.325000	-160.147433	-5.066637	-73.570646	0.081200	-0.182203	-0.014600	100.325806	3.286252	0.337680	15.640419	7.734298	-25.329385	-41.377223	29.411920	6.187244	41.972320	28.480364	23.090228	3.968151	43.228753	28.793816	11.735901	-4.235704	51.690935	35.361056	-0.506450	-7.185882	61.509432	41.855290
-1.315000	-160.147433	-5.066637	-73.570646	0.081205	-0.182194	-0.014598	100.338298	3.291723	0.342341	15.632277	7.743531	-25.327902	-41.385211	29.420497	6.187468	41.955650	28.473619	23.093524	3.969672	43.215382	28.787313	11.738671	-4.234177	51.683211	35.354045	-0.503894	-7.185353	61.516988	41.853762
-1.305000	-160.147433	-5.066637	-73.570646	0.081208	-0.182184	-0.014597	100.355285	3.299459	0.343518	15.624062	7.753274	-25.320193	-41.391541	29.430293	6.190307	41.943173	28.465811	23.103706	3.969371	43.204222	28.780227	11.748374	-4.233074	51.676189	35.346027	-0.491127	-7.183179	61.517783	41.841192
-1.295000	-160.147433	-5.066637	-73.570646	0.081212	-0.182173	-0.014595	100.375551	3.309352	0.343622	15.616722	7.756894	-25.309300	-41.395419	29.437967	6.195514	41.934277	28.456314	23.116064	3.966920	43.197567	28.773723	11.759754	-4.233011	51.672067	35.337718	-0.473648	-7.179802	61.514451	41.818862
-1.285000	-160.147433	-5.066637	-73.570646	0.081215	-0.182161	-0.014593	100.395653	3.319855	0.345330	15.610247	7.751499	-25.299709	-41.397483	29.441162	6.201861	41.927218	28.444936	23.125164	3.962660	43.196704	28.768585	11.767013	-4.234190	51.671513	35.330047	-0.458687	-7.175851	61.509771	41.791055
-1.275000	-160.147433	-5.066637	-73.570646	0.081219	-0.182149	-0.014591	100.411120	3.328436	0.350505	15.603572	7.739154	-25.296158	-41.399126	29.439617	6.207819	41.919630	28.432141	23.126584	3.957531	43.201823	28.765297	11.765995	-4.236281	51.673649	35.323944	-0.452172	-7.172059	61.505347	41.763792
-1.265000	-160.147433	-5.066637	-73.570646	0.081223	-0.182139	-0.014592	100.418431	3.332765	0.359551	15.595075	7.725977	-25.302031	-41.401314	29.435363	6.212342	41.909536	28.419110	23.118218	3.952726	43.212357	28.764287	11.755728	-4.238555	51.676740	35.320045	-0.456249	-7.169109	61.501293	41.742977
-1.255000	-160.147433	-5.066637	-73.570646	0.081228	-0.182130	-0.014594	100.416729	3.332014	0.371385	15.583329	7.719897	-25.317757	-41.403582	29.431836	6.215279	41.896526	28.407653	23.100777	3.949260	43.227488	28.766131	11.738754	-4.240218	51.679133	35.318506	-0.468549	-7.167420	61.496988	41.732633
-1.245000	-160.147433	-5.066637	-73.570646	0.081232	-0.182124	-0.014597	100.408171	3.327374	0.383987	15.567630	7.728010	-25.340236	-41.404190	29.432457	6.217236	41.882149	28.399738	23.077502	3.947649	43.246238	28.771443	11.720036	-4.240783	51.679932	35.319064	-0.483593	-7.166961	61.492163	41.733815
-1.235000	-160.147433	-5.066637	-73.570646	0.081234	-0.182119	-0.014598	100.396527	3.321327	0.395252	15.548056	7.754314	-25.364048	-41.401723	29.439505	6.218997	41.868883	28.396529	23.053197	3.947819	43.267007	28.780309	11.704765	-4.240276	51.679217	35.321309	-0.495676	-7.167257	61.487465	41.744490
-1.225000	-160.147433	-5.066637	-73.570646	0.081235	-0.182114	-0.014598	100.384966	3.316114	0.403783	15.525175	7.798165	-25.384021	-41.397091	29.453700	6.220884	41.858336	28.397436	23.032806	3.949266	43.287074	28.791633	11.695999	-4.239206	51.677996	35.325021	-0.501683	-7.167635	61.484143	41.760373
-1.215000	-160.147433	-5.066637	-73.570646	0.081233	-0.182110	-0.014595	100.374608	3.312497	0.409253	15.499692	7.853686	-25.397540	-41.394087	29.474312	6.222534	41.850141	28.399962	23.019868	3.951411	43.302879	28.802943	11.693317	-4.238347	51.678078	35.330340	-0.502332	-7.167548	61.483256	41.776408
-1.205000	-160.147433	-5.066637	-73.570646	0.081230	-0.182107	-0.014590	100.364822	3.309680	0.412265	15.472306	7.910622	-25.405049	-41.397443	29.499429	6.223207	41.842525	28.400764	23.015395	3.953920	43.311235	28.811038	11.693222	-4.238444	51.681856	35.337646	-0.501343	-7.166759	61.485161	41.788488
-1.195000	-160.147433	-5.066637	-73.570646	0.081228	-0.182105	-0.014586	100.354806	3.306367	0.413905	15.443778	7.957158	-25.408567	-41.409353	29.526292	6.222345	41.834084	28.397417	23.017739	3.956799	43.310820	28.813271	11.691075	-4.239950	51.691686	35.347166	-0.503172	-7.165284	61.489673	41.794825
-1.185000	-160.147433	-5.066637	-73.570646	0.081226	-0.182105	-0.014583	100.345108	3.302113	0.415257	15.415084	7.984171	-25.409555	-41.427081	29.551876	6.219944	41.825260	28.389738	23.023594	3.960155	43.302866	28.808783	11.683585	-4.242855	51.708691	35.358427	-0.510556	-7.163244	61.496454	41.796283
-1.175000	-160.147433	-5.066637	-73.570646	0.081224	-0.182105	-0.014583	100.338005	3.297990	0.417102	15.387447	7.988962	-25.407823	-41.443719	29.573658	6.216526	41.818254	28.379801	23.029621	3.963825	43.290565	28.798975	11.670569	-4.246638	51.731327	35.369811	-0.522949	-7.160778	61.504876	41.795262
